<?xml version="1.0" standalone="no"?>
<!DOCTYPE svg PUBLIC "-//W3C//DTD SVG 20010904//EN"
 "http://www.w3.org/TR/2001/REC-SVG-20010904/DTD/svg10.dtd">
<svg version="1.0" xmlns="http://www.w3.org/2000/svg"
 width="308.000000pt" height="135.000000pt" viewBox="0 0 308.000000 135.000000"
 preserveAspectRatio="xMidYMid meet">

<g transform="translate(0.000000,135.000000) scale(0.100000,-0.100000)"
fill="#e65800" stroke="none">
<path d="M485 1171 c-60 -28 -107 -90 -215 -281 -29 -52 -84 -147 -121 -210
-37 -63 -65 -118 -63 -122 3 -4 121 -8 263 -8 299 0 298 0 251 -73 l-30 -47
-244 0 -245 0 39 -68 c46 -78 111 -145 159 -161 22 -7 144 -11 358 -11 l325 0
-33 58 c-51 91 -112 200 -168 297 -66 117 -66 125 3 125 36 0 58 -5 66 -16 8
-8 64 -103 126 -211 l112 -195 22 38 c12 22 34 62 50 89 55 95 51 151 -23 280
-22 39 -56 99 -75 135 -20 36 -57 101 -83 145 -26 44 -63 106 -81 138 -18 31
-35 57 -38 57 -7 -1 -140 -224 -206 -344 -30 -55 -58 -104 -62 -108 -16 -16
-38 2 -61 48 l-22 46 112 194 c61 107 115 197 120 200 27 17 -2 24 -93 24 -79
0 -112 -5 -143 -19z m205 -518 c0 -27 -44 -98 -60 -98 -19 0 -73 82 -66 100 4
11 22 15 66 15 51 0 60 -3 60 -17z"/>
<path d="M1427 890 l-47 -5 65 -98 65 -97 -62 -92 c-35 -51 -67 -98 -71 -105
-6 -10 4 -13 43 -13 l50 0 45 70 c25 39 46 70 48 70 2 0 24 -31 48 -70 l44
-70 47 0 c27 0 48 2 48 5 0 3 -30 50 -67 105 l-66 101 66 97 66 97 -47 5 -47
5 -43 -63 c-24 -34 -47 -60 -53 -57 -5 4 -26 32 -47 63 l-37 57 -48 -5z"/>
<path d="M2250 690 l0 -210 40 0 40 0 0 210 0 210 -40 0 -40 0 0 -210z"/>
<path d="M2504 892 c-47 -8 -72 -25 -89 -62 -22 -50 -15 -105 19 -139 22 -22
37 -25 125 -31 56 -4 108 -13 116 -20 22 -18 19 -67 -4 -80 -11 -5 -72 -10
-135 -10 l-116 0 0 -35 0 -35 135 0 c97 0 146 4 171 15 77 32 86 173 13 211
-16 8 -72 17 -125 21 -85 5 -97 9 -111 29 -11 17 -12 27 -3 43 10 20 20 21
140 21 l130 0 0 38 0 37 -123 0 c-68 0 -132 -1 -143 -3z"/>
<path d="M1869 867 c-104 -69 -108 -287 -6 -361 25 -18 46 -21 168 -24 l139
-4 0 121 0 121 -106 0 -105 0 3 -32 c3 -32 4 -33 58 -38 l55 -5 0 -45 0 -45
-68 0 c-62 0 -71 3 -92 27 -42 49 -45 161 -6 210 18 21 29 23 138 28 l118 5 3
33 3 32 -134 0 c-122 0 -137 -2 -168 -23z"/>
</g>
</svg>
